<svg width="512" height="142" viewBox="0 0 512 142" fill="none" xmlns="http://www.w3.org/2000/svg">
<g clip-path="url(#clip0_1_2)">
<rect width="512" height="142" fill="#2F3F3D"/>
<rect opacity="0.29" x="512" y="142" width="512" height="142" transform="rotate(180 512 142)" fill="url(#paint0_radial_1_2)"/>
<path d="M251.624 79.144C250.792 79.144 249.92 78.992 249.008 78.688C248.096 78.384 247.336 77.872 246.728 77.152C246.6 76.992 246.544 76.824 246.56 76.648C246.592 76.456 246.696 76.296 246.872 76.168C247.032 76.056 247.2 76.016 247.376 76.048C247.568 76.08 247.72 76.168 247.832 76.312C248.296 76.856 248.856 77.24 249.512 77.464C250.184 77.672 250.912 77.776 251.696 77.776C253.04 77.776 253.992 77.536 254.552 77.056C255.112 76.576 255.392 76.016 255.392 75.376C255.392 74.752 255.088 74.24 254.48 73.84C253.888 73.424 252.968 73.128 251.72 72.952C250.12 72.728 248.936 72.296 248.168 71.656C247.4 71.016 247.016 70.272 247.016 69.424C247.016 68.624 247.216 67.952 247.616 67.408C248.016 66.848 248.56 66.432 249.248 66.16C249.952 65.872 250.752 65.728 251.648 65.728C252.736 65.728 253.656 65.928 254.408 66.328C255.16 66.712 255.768 67.232 256.232 67.888C256.36 68.048 256.4 68.224 256.352 68.416C256.32 68.592 256.2 68.736 255.992 68.848C255.832 68.928 255.664 68.952 255.488 68.92C255.312 68.888 255.16 68.792 255.032 68.632C254.632 68.12 254.144 67.736 253.568 67.48C253.008 67.208 252.352 67.072 251.6 67.072C250.592 67.072 249.808 67.288 249.248 67.72C248.688 68.152 248.408 68.672 248.408 69.28C248.408 69.696 248.52 70.064 248.744 70.384C248.984 70.688 249.368 70.952 249.896 71.176C250.424 71.384 251.128 71.552 252.008 71.68C253.208 71.84 254.152 72.112 254.84 72.496C255.544 72.88 256.04 73.328 256.328 73.84C256.632 74.336 256.784 74.872 256.784 75.448C256.784 76.2 256.544 76.856 256.064 77.416C255.584 77.976 254.952 78.408 254.168 78.712C253.384 79 252.536 79.144 251.624 79.144ZM267.947 73.24C267.739 73.24 267.563 73.176 267.419 73.048C267.291 72.904 267.227 72.728 267.227 72.52V60.976C267.227 60.752 267.291 60.576 267.419 60.448C267.563 60.32 267.739 60.256 267.947 60.256C268.171 60.256 268.347 60.32 268.475 60.448C268.603 60.576 268.667 60.752 268.667 60.976V72.52C268.667 72.728 268.603 72.904 268.475 73.048C268.347 73.176 268.171 73.24 267.947 73.24ZM278.579 79C278.371 79 278.195 78.936 278.051 78.808C277.923 78.664 277.859 78.488 277.859 78.28V71.824C277.859 70.768 277.651 69.896 277.235 69.208C276.835 68.52 276.283 68.008 275.579 67.672C274.891 67.32 274.107 67.144 273.227 67.144C272.363 67.144 271.587 67.312 270.899 67.648C270.211 67.968 269.667 68.416 269.267 68.992C268.867 69.568 268.667 70.216 268.667 70.936H267.467C267.531 69.944 267.827 69.056 268.355 68.272C268.883 67.472 269.571 66.848 270.419 66.4C271.267 65.936 272.203 65.704 273.227 65.704C274.379 65.704 275.411 65.944 276.323 66.424C277.251 66.888 277.979 67.576 278.507 68.488C279.035 69.384 279.299 70.496 279.299 71.824V78.28C279.299 78.488 279.227 78.664 279.083 78.808C278.955 78.936 278.787 79 278.579 79ZM267.947 79C267.739 79 267.563 78.936 267.419 78.808C267.291 78.664 267.227 78.488 267.227 78.28V66.592C267.227 66.368 267.291 66.192 267.419 66.064C267.563 65.936 267.739 65.872 267.947 65.872C268.171 65.872 268.347 65.936 268.475 66.064C268.603 66.192 268.667 66.368 268.667 66.592V78.28C268.667 78.488 268.603 78.664 268.475 78.808C268.347 78.936 268.171 79 267.947 79ZM296.576 79.144C295.296 79.144 294.144 78.856 293.12 78.28C292.112 77.688 291.312 76.888 290.72 75.88C290.144 74.856 289.856 73.712 289.856 72.448C289.856 71.168 290.144 70.024 290.72 69.016C291.312 67.992 292.112 67.192 293.12 66.616C294.144 66.024 295.296 65.728 296.576 65.728C297.856 65.728 299 66.024 300.008 66.616C301.016 67.192 301.808 67.992 302.384 69.016C302.976 70.024 303.272 71.168 303.272 72.448C303.272 73.712 302.976 74.856 302.384 75.88C301.808 76.888 301.016 77.688 300.008 78.28C299 78.856 297.856 79.144 296.576 79.144ZM296.576 77.8C297.584 77.8 298.48 77.568 299.264 77.104C300.064 76.624 300.688 75.984 301.136 75.184C301.6 74.368 301.832 73.448 301.832 72.424C301.832 71.416 301.6 70.512 301.136 69.712C300.688 68.896 300.064 68.256 299.264 67.792C298.48 67.312 297.584 67.072 296.576 67.072C295.584 67.072 294.688 67.312 293.888 67.792C293.088 68.256 292.456 68.896 291.992 69.712C291.528 70.512 291.296 71.424 291.296 72.448C291.296 73.456 291.528 74.368 291.992 75.184C292.456 75.984 293.088 76.624 293.888 77.104C294.688 77.568 295.584 77.8 296.576 77.8ZM316.266 79C316.106 79 315.962 78.96 315.834 78.88C315.722 78.8 315.642 78.688 315.594 78.544L311.706 66.904C311.642 66.552 311.658 66.296 311.754 66.136C311.85 65.96 312.018 65.872 312.258 65.872C312.386 65.872 312.514 65.912 312.642 65.992C312.77 66.056 312.866 66.16 312.93 66.304L316.482 77.008H316.17L319.434 66.448C319.482 66.272 319.57 66.136 319.698 66.04C319.826 65.928 319.978 65.872 320.154 65.872C320.33 65.872 320.474 65.928 320.586 66.04C320.714 66.136 320.81 66.272 320.874 66.448L324.234 77.008H323.802L327.354 66.304C327.482 66.016 327.706 65.872 328.026 65.872C328.314 65.872 328.506 65.984 328.602 66.208C328.714 66.432 328.714 66.664 328.602 66.904L324.738 78.544C324.69 78.688 324.602 78.8 324.474 78.88C324.362 78.96 324.218 79 324.042 79C323.882 79 323.738 78.96 323.61 78.88C323.482 78.8 323.402 78.688 323.37 78.544L319.938 67.888H320.25L316.938 78.544C316.874 78.704 316.778 78.824 316.65 78.904C316.538 78.968 316.41 79 316.266 79ZM342.979 79.144C342.147 79.144 341.275 78.992 340.363 78.688C339.451 78.384 338.691 77.872 338.083 77.152C337.955 76.992 337.899 76.824 337.915 76.648C337.947 76.456 338.051 76.296 338.227 76.168C338.387 76.056 338.555 76.016 338.731 76.048C338.923 76.08 339.075 76.168 339.187 76.312C339.651 76.856 340.211 77.24 340.867 77.464C341.539 77.672 342.267 77.776 343.051 77.776C344.395 77.776 345.347 77.536 345.907 77.056C346.467 76.576 346.747 76.016 346.747 75.376C346.747 74.752 346.443 74.24 345.835 73.84C345.243 73.424 344.323 73.128 343.075 72.952C341.475 72.728 340.291 72.296 339.523 71.656C338.755 71.016 338.371 70.272 338.371 69.424C338.371 68.624 338.571 67.952 338.971 67.408C339.371 66.848 339.915 66.432 340.603 66.16C341.307 65.872 342.107 65.728 343.003 65.728C344.091 65.728 345.011 65.928 345.763 66.328C346.515 66.712 347.123 67.232 347.587 67.888C347.715 68.048 347.755 68.224 347.707 68.416C347.675 68.592 347.555 68.736 347.347 68.848C347.187 68.928 347.019 68.952 346.843 68.92C346.667 68.888 346.515 68.792 346.387 68.632C345.987 68.12 345.499 67.736 344.923 67.48C344.363 67.208 343.707 67.072 342.955 67.072C341.947 67.072 341.163 67.288 340.603 67.72C340.043 68.152 339.763 68.672 339.763 69.28C339.763 69.696 339.875 70.064 340.099 70.384C340.339 70.688 340.723 70.952 341.251 71.176C341.779 71.384 342.483 71.552 343.363 71.68C344.563 71.84 345.507 72.112 346.195 72.496C346.899 72.88 347.395 73.328 347.683 73.84C347.987 74.336 348.139 74.872 348.139 75.448C348.139 76.2 347.899 76.856 347.419 77.416C346.939 77.976 346.307 78.408 345.523 78.712C344.739 79 343.891 79.144 342.979 79.144Z" fill="#FFFBEB"/>
<path d="M185 66H173.148M161 66H173.148M173.148 66V79" stroke="#FFFBEB" stroke-width="3" stroke-linecap="round" stroke-linejoin="round"/>
<path d="M198 66L209.5 78L221 66" stroke="#FFFBEB" stroke-width="3" stroke-linecap="round" stroke-linejoin="round"/>
</g>
<defs>
<radialGradient id="paint0_radial_1_2" cx="0" cy="0" r="1" gradientUnits="userSpaceOnUse" gradientTransform="translate(768 343.492) rotate(-90) scale(201.492 273)">
<stop stop-color="#3D948B"/>
<stop offset="1" stop-color="#3D948B" stop-opacity="0"/>
</radialGradient>
<clipPath id="clip0_1_2">
<rect width="512" height="142" fill="white"/>
</clipPath>
</defs>
</svg>
